<?xml version="1.0" encoding="utf-8"?>
<!DOCTYPE svg PUBLIC "-//W3C//DTD SVG 1.1//EN" "http://www.w3.org/Graphics/SVG/1.1/DTD/svg11.dtd">
<svg xmlns="http://www.w3.org/2000/svg" xmlns:xlink="http://www.w3.org/1999/xlink" version="1.1" baseProfile="full" width="76" height="76" viewBox="0 0 76.00 76.00" enable-background="new 0 0 76.00 76.00" xml:space="preserve">
	<path fill="#000000" fill-opacity="1" stroke-linejoin="round" d="M 12.875,18L 63.125,18L 63.125,23.875L 12.875,23.875L 12.875,18 Z M 30.625,35.0625L 63,35.0625L 63,40.9375L 30.625,40.9375L 30.625,35.0625 Z M 12.75,52.3125L 63,52.3125L 63,58.1875L 12.75,58.1875L 12.75,52.3125 Z M 30.625,26.4375L 63,26.4375L 63,32.3125L 30.625,32.3125L 30.625,26.4375 Z M 25,37.8451L 12.75,46L 12.75,29.6902L 25,37.8451 Z M 30.625,43.6875L 63,43.6875L 63,49.5625L 30.625,49.5625L 30.625,43.6875 Z "/>
</svg>