<?xml version="1.0" encoding="utf-8"?>
<!DOCTYPE svg PUBLIC "-//W3C//DTD SVG 1.1//EN" "http://www.w3.org/Graphics/SVG/1.1/DTD/svg11.dtd">
<svg xmlns="http://www.w3.org/2000/svg" xmlns:xlink="http://www.w3.org/1999/xlink" version="1.1" baseProfile="full" width="76" height="76" viewBox="0 0 76.00 76.00" enable-background="new 0 0 76.00 76.00" xml:space="preserve">
	<path fill="#CDCDCD" fill-opacity="1" stroke-linejoin="round" d="M 44.0155,59.25L 39.3391,59.25L 31.8094,46.8927C 31.5789,46.518 31.3267,45.9848 31.0529,45.2931L 30.9664,45.2931L 30.1882,46.8927L 22.4279,59.25L 17.73,59.25L 28.7687,43.0233L 18.6523,26.9696L 23.3647,26.9696L 30.0729,38.3182C 30.5149,39.0675 30.904,39.8169 31.2402,40.5663L 31.3339,40.5663C 31.8239,39.5767 32.2514,38.7961 32.6165,38.2245L 39.5985,26.9696L 44.0155,26.9696L 33.6901,42.9729L 44.0155,59.25 Z M 48.4666,31.8951L 48.4666,31.975L 56.356,31.975L 56.356,35.472L 43.7128,35.472L 43.7128,32.1852L 49.2736,27.011C 50.3945,25.9743 51.1826,25.1049 51.6379,24.403C 52.0933,23.701 52.3209,22.9634 52.3209,22.19C 52.3209,20.4639 51.3444,19.6008 49.3913,19.6008C 47.6932,19.6008 46.0694,20.2285 44.5198,21.4839L 44.5198,17.8313C 46.2179,16.859 48.1332,16.3728 50.2656,16.3728C 52.2635,16.3728 53.8229,16.852 54.9437,17.8103C 56.0646,18.7686 56.625,20.0632 56.625,21.694C 56.625,23.8713 55.252,26.1214 52.5059,28.4443L 48.4666,31.8951 Z "/>
</svg>
