<?xml version="1.0" encoding="utf-8"?>
<!DOCTYPE svg PUBLIC "-//W3C//DTD SVG 1.1//EN" "http://www.w3.org/Graphics/SVG/1.1/DTD/svg11.dtd">
<svg xmlns="http://www.w3.org/2000/svg" xmlns:xlink="http://www.w3.org/1999/xlink" version="1.1" baseProfile="full" width="76" height="76" viewBox="0 0 76.00 76.00" enable-background="new 0 0 76.00 76.00" xml:space="preserve">
	<path fill="#CDCDCD" fill-opacity="1" stroke-linejoin="round" d="M 28.9792,20.2031L 59.8542,20.2031L 59.8542,27.4531L 28.9792,27.4531L 28.9792,20.2031 Z M 28.9375,33.2448L 59.7708,33.2448L 59.7708,40.4531L 28.9375,40.4531L 28.9375,33.2448 Z M 28.9375,46.3698L 59.7969,46.3698L 59.7969,53.5886L 28.9375,53.5886L 28.9375,46.3698 Z M 19.9271,45.5365C 22.3778,45.5365 24.3646,47.5232 24.3646,49.974C 24.3646,52.4247 22.3778,54.4115 19.9271,54.4115C 17.4763,54.4115 15.4896,52.4247 15.4896,49.974C 15.4896,47.5232 17.4763,45.5365 19.9271,45.5365 Z M 19.9271,19.2865C 22.3778,19.2865 24.3646,21.2732 24.3646,23.724C 24.3646,26.1747 22.3778,28.1615 19.9271,28.1615C 17.4763,28.1615 15.4896,26.1747 15.4896,23.724C 15.4896,21.2732 17.4763,19.2865 19.9271,19.2865 Z M 19.9271,32.2865C 22.3778,32.2865 24.3646,34.2732 24.3646,36.724C 24.3646,39.1747 22.3778,41.1615 19.9271,41.1615C 17.4763,41.1615 15.4896,39.1747 15.4896,36.724C 15.4896,34.2732 17.4763,32.2865 19.9271,32.2865 Z "/>
</svg>
